PathFileType	4	(X/Y/Z)	s07c0201.trc
DataRate	CameraRate	NumFrames	NumMarkers	Units	OrigDataRate	OrigDataStartFrame	OrigNumFrames
200	200	7	48	mm	200	0	2000
Frame#	Time	racr			lacr			c7			jug			rlel			rdr			llel			ldr			s2			lic			ric			lasi			rasi			rpsi			lpsi			rgt			lgt			rth1			rth2			rth3			rth4			rlfc			rmfc			rsh1			rsh2			rsh3			rsh4			rlmal			rcal			rtoe			rmt5			lth1			lth2			lth4			lth3			llfc			lmfc			lsh1			lsh2			lsh3			lsh4			llmal			lcal			ltoe			lmt5			SBIKE			LBIKE			RBIKE			
		X1	Y1	Z1	X2	Y2	Z2	X3	Y3	Z3	X4	Y4	Z4	X5	Y5	Z5	X6	Y6	Z6	X7	Y7	Z7	X8	Y8	Z8	X9	Y9	Z9	X10	Y10	Z10	X11	Y11	Z11	X12	Y12	Z12	X13	Y13	Z13	X14	Y14	Z14	X15	Y15	Z15	X16	Y16	Z16	X17	Y17	Z17	X18	Y18	Z18	X19	Y19	Z19	X20	Y20	Z20	X21	Y21	Z21	X22	Y22	Z22	X23	Y23	Z23	X24	Y24	Z24	X25	Y25	Z25	X26	Y26	Z26	X27	Y27	Z27	X28	Y28	Z28	X29	Y29	Z29	X30	Y30	Z30	X31	Y31	Z31	X32	Y32	Z32	X33	Y33	Z33	X34	Y34	Z34	X35	Y35	Z35	X36	Y36	Z36	X37	Y37	Z37	X38	Y38	Z38	X39	Y39	Z39	X40	Y40	Z40	X41	Y41	Z41	X42	Y42	Z42	X43	Y43	Z43	X44	Y44	Z44	X45	Y45	Z45	X46	Y46	Z46	X47	Y47	Z47	X48	Y48	Z48	
0	0.0000	406.381021	1486.529513	-86.944295	396.993629	1462.261014	-369.510828	378.305135	1519.934172	-236.682692	351.190304	1379.254742	-231.984466	510.051220	1169.366884	6.268779	690.267222	935.191299	-60.862496	506.880087	1160.772631	-474.234900	684.983260	925.005031	-441.511637	-144.946004	1199.915717	-247.852341	13.160162	1263.430216	-387.771143	17.313775	1256.711202	-93.409945	53.400584	1186.153911	-360.733337	36.271410	1201.437054	-113.357275	-122.539476	1239.987833	-196.115828	-110.013203	1249.958417	-304.095178	-29.503846	1130.274682	-48.972515	-31.961468	1099.064514	-416.892294	107.240422	1081.314213	-39.495076	194.615588	1075.356170	-47.363494	267.977194	1031.793670	-41.370100	204.261388	1107.066356	-65.125502	394.245767	957.026462	-72.462160	397.160658	945.361848	-178.980376	339.118467	822.940443	-59.309159	326.450888	737.060599	-80.728767	274.587310	667.628852	-84.158136	345.793732	735.569186	-117.235574	214.992633	548.545484	-94.089569	144.535527	522.902133	-126.005578	423.010484	440.973000	-125.515728	337.338127	425.585820	-57.716976	31.567808	992.499701	-423.943084	100.247112	938.140179	-425.988237	129.628514	957.844106	-416.832179	132.540343	853.837718	-420.334452	220.653545	698.644411	-386.264408	206.957738	682.763723	-290.389018	136.839519	574.129446	-409.511524	107.331197	495.561197	-389.346012	41.314200	434.993114	-398.932272	109.369173	497.459368	-347.892694	-41.755345	328.962237	-395.959358	-118.937275	309.136607	-362.360222	152.457400	209.534809	-357.248115	68.530644	208.141227	-420.960053	-263.586244	974.504723	-235.215551	-82.913830	79.168226	-434.879645	-82.337979	78.832801	-37.194541	
1	0.0050	406.418559	1486.573683	-86.958463	397.022381	1462.302317	-369.433094	378.302945	1519.949629	-236.662851	351.188368	1379.298245	-231.979864	510.071784	1169.380676	6.305286	690.270268	935.213920	-60.870869	506.893319	1160.811681	-474.236138	684.992881	925.051581	-441.556479	-144.883374	1199.930939	-247.904965	13.232522	1263.386067	-387.791552	17.296918	1256.714491	-93.410607	53.447339	1186.152648	-360.737535	36.297772	1201.422300	-113.355618	-122.488039	1239.976695	-196.155454	-109.943826	1249.957592	-304.141154	-29.486824	1130.298646	-48.980956	-31.931416	1099.065024	-416.926864	107.313119	1081.405992	-39.545851	194.681743	1075.485053	-47.426991	268.054451	1031.975140	-41.423821	204.326011	1107.287818	-65.171761	394.320271	957.213127	-72.496899	397.218160	945.533859	-179.046282	339.175886	823.152650	-59.359311	326.482762	737.264818	-80.747626	274.567518	667.884748	-84.185096	345.817247	735.743644	-117.251991	214.973625	548.750628	-94.095142	144.508687	523.257528	-125.988522	422.925512	441.028608	-125.524445	337.245150	425.720110	-57.730910	31.566111	992.483337	-423.974363	100.244862	938.102004	-426.027806	129.641949	957.796078	-416.849827	132.508791	853.794620	-420.414627	220.541973	698.570063	-386.332427	206.894963	682.697557	-290.450527	136.748246	574.041352	-409.562539	107.278301	495.464134	-389.393632	41.294977	434.875562	-398.962725	109.330194	497.373262	-347.949248	-41.737196	328.836985	-395.963154	-118.884507	308.879768	-362.397217	152.543405	209.468623	-357.261131	68.635993	208.031334	-420.941711	-263.581204	974.518015	-235.229055	-82.915511	79.193260	-434.881028	-82.340184	78.825005	-37.194444	
2	0.0100	406.428997	1486.616025	-87.021315	397.054137	1462.348502	-369.379874	378.329919	1519.929905	-236.645464	351.181571	1379.326892	-231.885957	510.044985	1169.385765	6.338238	690.258293	935.243034	-60.895333	506.913267	1160.832856	-474.205925	685.010716	925.052481	-441.551884	-144.854485	1199.926718	-247.924269	13.298344	1263.373143	-387.790073	17.331987	1256.721864	-93.442408	53.944564	1186.067168	-361.009768	36.313149	1201.426674	-113.369904	-122.465535	1239.969214	-196.195655	-109.901670	1249.948825	-304.175638	-29.477136	1130.322292	-48.996705	-31.913623	1099.046042	-416.969654	107.354792	1081.505362	-39.582043	194.731060	1075.610734	-47.481085	268.111941	1032.143146	-41.469064	204.345170	1107.415958	-65.248620	394.390474	957.400026	-72.550935	397.273281	945.693174	-179.112145	339.233020	823.339111	-59.396206	326.507053	737.392988	-80.772445	274.548419	668.096972	-84.190723	345.867729	735.929266	-117.232199	215.005531	548.930298	-94.145844	144.492109	523.543200	-125.967390	422.876564	441.065548	-125.532244	337.187152	425.835790	-57.744407	31.566145	992.460576	-423.998280	100.225948	938.051321	-426.042387	129.627852	957.752277	-416.884270	132.453234	853.745855	-420.469494	220.451717	698.490839	-386.393651	206.832111	682.606526	-290.496159	136.673668	573.948507	-409.612518	107.248417	495.364360	-389.419303	41.256658	434.770248	-398.974687	109.301770	497.279404	-347.972377	-41.734617	328.696470	-395.964447	-118.851963	308.660364	-362.395384	152.620455	209.419599	-357.262397	68.716852	207.909076	-420.922222	-263.575541	974.512209	-235.229864	-82.929007	79.184140	-434.870592	-82.343429	78.856352	-37.184660	
3	0.0150	406.451673	1486.641463	-87.041047	397.089258	1462.396201	-369.334016	378.348443	1519.917819	-236.596644	351.925850	1378.200453	-228.030427	509.734439	1170.095711	7.058316	690.263398	935.233162	-60.869306	506.933329	1160.863353	-474.195799	684.203407	922.885829	-436.875926	-144.808828	1199.925122	-247.974078	13.994400	1263.149937	-388.273184	17.274036	1256.828280	-93.555482	53.980450	1186.050397	-361.026736	36.352805	1201.423216	-113.422845	-122.439260	1239.984504	-196.216959	-109.718791	1250.163460	-304.771442	-29.449620	1130.346574	-48.997740	-31.604185	1099.113395	-416.312152	107.541400	1081.467740	-39.572278	194.775690	1075.743609	-47.523709	268.076095	1032.218131	-41.539046	204.396596	1107.525012	-65.329693	394.441724	957.463210	-72.580338	397.341477	945.853313	-179.132270	339.290914	823.500931	-59.425236	326.741783	737.434928	-80.526974	274.574411	668.300114	-84.201254	346.180060	735.836993	-117.114838	214.709464	549.695689	-93.545505	144.490190	523.774055	-125.946994	422.729353	441.709784	-125.317178	337.205458	425.876758	-57.770551	31.538109	992.438820	-424.037792	100.479017	937.059378	-425.259580	129.598247	957.761476	-417.008310	132.472873	854.005540	-419.694763	220.351578	698.319097	-386.496528	206.857983	682.520379	-290.498787	136.583502	573.835435	-409.615960	107.298781	494.904924	-389.623519	41.228035	434.653827	-398.983486	109.521994	497.002265	-347.820351	-41.914802	328.446343	-395.698863	-118.850659	308.478906	-362.386298	152.722541	209.302756	-357.269208	68.763230	207.761046	-420.916587	-263.674448	974.537908	-235.639272	-82.932067	79.190101	-434.867307	-82.330306	78.861095	-37.185725	
4	0.0200	406.429997	1486.782975	-86.976565	397.125513	1462.275415	-369.315431	378.384309	1519.905924	-236.602062	352.502044	1377.123091	-225.886858	509.797093	1170.154785	7.192088	690.091665	935.343859	-60.712324	507.118159	1158.073319	-466.049115	683.492255	920.077808	-432.629289	-144.811376	1199.966794	-247.993943	8.306145	1257.952563	-373.447240	17.293726	1256.857008	-93.600168	55.177972	1184.508268	-355.291638	36.515056	1201.255500	-113.006142	-122.420082	1240.038775	-196.234299	-109.688751	1250.157922	-304.849354	-29.554166	1130.587240	-48.881115	-29.145830	1097.299835	-411.892700	107.414266	1081.773605	-39.564337	194.749070	1075.995807	-47.548133	268.058975	1032.581071	-41.585482	204.475868	1107.697983	-65.391070	394.544105	957.692612	-72.681018	400.689827	944.224162	-174.331470	339.248391	823.858582	-59.353351	334.679817	736.835857	-75.904483	274.504769	668.673178	-84.138363	351.415619	733.451084	-109.211623	214.763991	549.989565	-93.387314	144.499256	523.985430	-125.946048	422.709805	441.741909	-125.302908	336.955481	426.201905	-57.656133	31.835728	992.306454	-423.467024	100.429604	936.888786	-425.283842	133.347006	955.248690	-411.501023	135.154555	851.630477	-415.230409	225.895268	695.684105	-380.635856	206.495641	682.757433	-290.352666	136.392535	573.906783	-409.634501	114.098173	491.755907	-383.804350	41.577749	434.163140	-397.869947	109.312731	497.271310	-347.789605	-41.589530	328.377166	-396.092703	-118.661796	308.403168	-362.532413	152.701670	209.148434	-357.149370	73.514925	202.735001	-414.750170	-263.630767	974.446022	-235.770516	-82.687667	79.684947	-434.580244	-82.449182	79.047176	-37.226207	
5	0.0250	406.506595	1486.820500	-86.922747	397.137214	1462.547551	-369.225693	378.412215	1519.779187	-236.629376	351.172145	1379.270897	-231.809051	509.632138	1169.879616	6.859648	690.242678	935.317475	-60.891444	506.958610	1161.057471	-474.193157	684.841200	924.866217	-441.464777	-144.694878	1199.912152	-248.099487	14.019870	1263.429636	-388.367455	17.305948	1256.853015	-93.633398	54.090941	1186.105691	-361.051573	36.376475	1201.452500	-113.448582	-122.443906	1239.968542	-196.299673	-109.672708	1250.160214	-305.121190	-29.517040	1130.620370	-48.912935	-31.942570	1099.006613	-417.177584	107.440624	1081.831274	-39.595884	194.762654	1076.069562	-47.570158	268.087617	1032.723343	-41.640635	204.426652	1107.624552	-65.569018	394.586361	957.781512	-72.659399	397.377678	946.250041	-179.217880	339.327589	823.998063	-59.376216	326.135986	737.698275	-82.278009	274.544044	668.835824	-84.109025	345.953739	736.671377	-116.548763	214.765685	550.004644	-93.533757	144.557341	524.195543	-125.759530	422.565140	441.765978	-125.355871	336.883388	426.346122	-57.675426	31.392483	992.316031	-424.195356	100.395611	936.944127	-425.291768	129.525106	957.606505	-417.033089	131.981757	853.896686	-420.523171	220.100319	698.260666	-386.602536	206.401027	682.669484	-290.431895	136.317537	573.768709	-409.703098	107.008473	494.887262	-389.754260	41.083645	434.386760	-399.131114	109.322427	497.111810	-347.824731	-41.763970	328.511181	-396.382010	-118.834919	307.981145	-362.308688	152.765541	209.098148	-357.150264	68.899133	207.574737	-420.889017	-263.645391	974.519859	-235.625308	-83.077247	79.192770	-434.889602	-82.536029	79.130367	-37.194102	
6	0.0300	406.538029	1486.757418	-86.883204	397.183846	1462.520081	-369.213878	378.439019	1519.731778	-236.597212	351.167338	1379.249282	-231.761037	509.700334	1169.924570	6.936225	690.215642	935.327539	-60.782029	506.984200	1161.053663	-474.207774	684.836014	924.850867	-441.437164	-144.696796	1199.932564	-248.133495	13.993546	1263.382231	-388.359427	17.326067	1256.856830	-93.691386	54.089723	1186.156285	-361.094791	36.378585	1201.440762	-113.475014	-122.422896	1239.991196	-196.341540	-109.670415	1250.160989	-305.178036	-29.503260	1130.657822	-48.939748	-31.899115	1099.016239	-417.105929	107.463059	1081.928036	-39.648800	194.805024	1076.159141	-47.645573	268.122181	1032.846824	-41.707180	204.476359	1107.688242	-65.621019	394.667772	957.964135	-72.738307	397.420860	946.422005	-179.233458	339.404053	824.139949	-59.390553	326.793815	738.245230	-80.539218	274.615944	668.992732	-84.122567	346.265744	736.462915	-117.071354	214.769860	550.147712	-93.533579	144.540927	524.389052	-125.744531	422.522253	441.789306	-125.354555	336.794742	426.460211	-57.667894	31.402716	992.321792	-424.125799	100.321897	936.896210	-425.328900	129.466963	957.562371	-417.082590	131.934791	853.862140	-420.462053	219.969562	698.223364	-386.658446	206.276954	682.606909	-290.445567	136.190364	573.714405	-409.725777	106.888404	494.850818	-389.773200	41.104230	434.221152	-399.050485	109.225108	497.072747	-347.824741	-41.750991	328.021207	-395.921648	-118.830560	307.837145	-362.310524	152.835160	209.064484	-357.153643	68.967978	207.458813	-420.867876	-263.651150	974.523258	-235.614966	-83.035976	79.208602	-434.877984	-82.536418	79.095692	-37.249824	
